<?xml version="1.0" standalone="no"?>
<!DOCTYPE svg PUBLIC "-//W3C//DTD SVG 20010904//EN"
 "http://www.w3.org/TR/2001/REC-SVG-20010904/DTD/svg10.dtd">
<svg version="1.0" xmlns="http://www.w3.org/2000/svg"
 width="626.000000pt" height="398.000000pt" viewBox="0 0 626.000000 398.000000"
 preserveAspectRatio="xMidYMid meet">

<g transform="translate(0.000000,398.000000) scale(0.100000,-0.100000)"
fill="#34A853" stroke="none">
<path d="M2865 3200 c-387 -79 -710 -329 -888 -686 -95 -189 -132 -368 -124
-593 9 -242 57 -409 178 -616 l58 -100 -16 -50 c-9 -27 -42 -128 -74 -223 -33
-96 -57 -177 -54 -182 2 -4 69 14 148 40 79 26 183 60 231 76 l87 28 57 -33
c202 -116 371 -167 592 -177 466 -23 883 198 1142 607 264 417 248 972 -39
1377 -62 87 -221 251 -303 313 -139 104 -346 193 -524 224 -124 21 -354 19
-471 -5z m-131 -562 c30 -28 159 -337 158 -380 0 -19 -15 -46 -39 -75 -21 -24
-49 -60 -62 -79 -23 -33 -24 -36 -9 -67 30 -62 140 -197 204 -252 115 -98 278
-195 325 -195 26 0 66 37 108 98 57 83 73 96 120 89 21 -2 109 -39 194 -80
177 -86 177 -86 157 -199 -25 -138 -115 -219 -282 -254 -63 -13 -80 -13 -155
1 -179 34 -381 122 -537 233 -158 114 -395 391 -481 562 -71 143 -84 297 -36
423 29 75 117 171 169 185 70 19 138 14 166 -10z"/>
</g>
</svg>
